<?xml version="1.0" encoding="UTF-8"?>
<!DOCTYPE svg PUBLIC "-//W3C//DTD SVG 1.1//EN" "http://www.w3.org/Graphics/SVG/1.1/DTD/svg11.dtd">
<svg version="1.1" xmlns="http://www.w3.org/2000/svg" xmlns:xlink="http://www.w3.org/1999/xlink" x="0" y="0" width="400" height="400" viewBox="0, 0, 400, 400">
  <g id="Background">
    <rect x="0" y="0" width="400" height="400" fill="#000000" fill-opacity="0"/>
  </g>
  <g id="logo.png">
    <g id="Julia_et_vincent">
      <path d="M16.289,172.786 L16.737,169.649 L26.606,171.057 Q28.541,171.333 29.535,171.822 Q30.831,172.473 31.484,173.793 Q32.136,175.112 31.856,177.079 Q31.526,179.387 30.057,180.447 Q28.587,181.507 26.087,181.161 L26.169,178.145 Q27.517,178.283 28.119,178.022 Q29.032,177.631 29.18,176.589 Q29.33,175.536 28.792,175.014 Q28.253,174.493 26.36,174.223 z" fill="#000000"/>
      <path d="M22.99,143.374 L24.057,140.379 L32.091,143.242 Q34.004,143.924 34.61,144.014 Q35.589,144.147 36.399,143.62 Q37.208,143.093 37.655,141.838 Q38.11,140.563 37.819,139.73 Q37.529,138.897 36.817,138.495 Q36.105,138.092 34.344,137.465 L26.138,134.54 L27.205,131.545 L34.997,134.322 Q37.668,135.274 38.685,135.91 Q39.701,136.546 40.227,137.469 Q40.754,138.392 40.814,139.645 Q40.875,140.899 40.248,142.659 Q39.49,144.784 38.608,145.707 Q37.726,146.63 36.715,146.988 Q35.704,147.346 34.771,147.242 Q33.392,147.081 30.903,146.194 z" fill="#000000"/>
      <path d="M52.52,115.319 L39.212,107.142 L40.877,104.433 L51.924,111.221 L56.063,104.484 L58.324,105.873 z" fill="#000000"/>
      <path d="M72.169,87.935 L60.455,77.409 L62.58,75.044 L74.294,85.57 z" fill="#000000"/>
      <path d="M102.454,60.55 L99.715,62.662 L96.442,60.668 L91.457,64.512 L92.611,68.139 L89.94,70.198 L85.182,53.981 L87.845,51.928 z M94.014,59.19 L88.727,55.887 L90.611,61.814 z" fill="#000000"/>
      <path d="M145.19,38.987 L140.617,23.918 L151.79,20.527 L152.564,23.076 L144.433,25.544 L145.447,28.884 L153.012,26.588 L153.783,29.127 L146.217,31.423 L147.462,35.525 L155.881,32.97 L156.652,35.508 z" fill="#000000"/>
      <path d="M182.964,30.863 L181.812,17.829 L177.157,18.241 L176.923,15.587 L189.389,14.485 L189.623,17.139 L184.979,17.549 L186.132,30.583 z" fill="#000000"/>
      <path d="M243.47,35.661 L242.234,18.983 L245.558,19.901 L246.298,32.196 L253.117,21.987 L256.368,22.884 L246.742,36.564 z" fill="#000000"/>
      <path d="M272.61,46.275 L279.54,32.134 L282.395,33.533 L275.465,47.674 z" fill="#000000"/>
      <path d="M295.851,59.463 L305.207,46.795 L307.695,48.633 L306.632,60.921 L312.88,52.462 L315.256,54.216 L305.901,66.884 L303.335,64.989 L304.328,52.957 L298.228,61.218 z" fill="#000000"/>
      <path d="M334.467,86.782 L335.767,89.744 Q333.362,90.912 331.334,90.499 Q329.305,90.086 327.633,88.181 Q325.563,85.824 325.841,82.893 Q326.118,79.961 328.911,77.508 Q331.865,74.914 334.839,75.004 Q337.814,75.094 339.997,77.581 Q341.904,79.752 341.811,82.235 Q341.761,83.708 340.695,85.359 L338.053,83.491 Q338.789,82.473 338.737,81.339 Q338.685,80.205 337.848,79.253 Q336.693,77.937 335.029,77.947 Q333.365,77.957 331.251,79.814 Q329.007,81.785 328.763,83.429 Q328.519,85.072 329.654,86.364 Q330.49,87.316 331.698,87.47 Q332.906,87.625 334.467,86.782 z" fill="#000000"/>
      <path d="M345.51,111.923 L359.237,104.203 L364.961,114.381 L362.638,115.687 L358.473,108.281 L355.43,109.992 L359.306,116.883 L356.993,118.184 L353.118,111.293 L349.382,113.393 L353.694,121.062 L351.382,122.362 z" fill="#000000"/>
      <path d="M360.525,143.717 L375.567,139.052 L376.483,142.007 L368.348,151.278 L378.392,148.163 L379.268,150.985 L364.226,155.65 L363.281,152.602 L371.209,143.496 L361.401,146.539 z" fill="#000000"/>
      <path d="M369.098,182.597 L382.128,181.408 L381.703,176.755 L384.356,176.513 L385.493,188.976 L382.84,189.218 L382.416,184.575 L369.386,185.763 z" fill="#000000"/>
    </g>
    <g>
      <path d="M100.153,358.466 L98.592,360.795 L89.803,354.904 Q90.831,353.679 92.337,352.975 Q93.844,352.271 97.259,351.729 Q100.013,351.285 100.774,350.98 Q101.812,350.551 102.32,349.793 Q102.882,348.954 102.734,348.201 Q102.585,347.448 101.791,346.916 Q101.006,346.39 100.225,346.552 Q99.444,346.714 98.637,347.763 L96.306,345.839 Q97.916,343.918 99.698,343.806 Q101.48,343.695 103.247,344.879 Q105.183,346.177 105.59,347.962 Q105.997,349.748 104.956,351.301 Q104.364,352.184 103.512,352.77 Q102.66,353.357 101.387,353.771 Q100.543,354.046 98.626,354.339 Q96.71,354.632 96.154,354.777 Q95.598,354.921 95.174,355.129 z" fill="#000000"/>
      <path d="M119.943,367.77 L122.759,368.628 Q122.434,369.706 122.755,370.494 Q123.076,371.282 123.872,371.634 Q124.727,372.013 125.598,371.623 Q126.469,371.233 126.956,370.133 Q127.417,369.092 127.126,368.235 Q126.836,367.378 126.03,367.022 Q125.5,366.787 124.672,366.667 L125.972,364.552 Q127.078,365.077 127.896,364.822 Q128.714,364.567 129.092,363.713 Q129.413,362.986 129.172,362.362 Q128.931,361.739 128.214,361.421 Q127.507,361.108 126.789,361.378 Q126.07,361.648 125.545,362.543 L123.192,360.985 Q124.035,359.796 124.916,359.252 Q125.797,358.707 126.953,358.684 Q128.108,358.661 129.297,359.187 Q131.33,360.087 131.985,361.927 Q132.527,363.435 131.936,364.771 Q131.097,366.667 128.524,366.88 Q129.645,367.693 129.978,368.944 Q130.311,370.196 129.733,371.502 Q128.894,373.398 126.918,374.122 Q124.942,374.845 122.879,373.932 Q120.924,373.067 120.135,371.373 Q119.345,369.679 119.943,367.77 z" fill="#000000"/>
      <path d="M156.894,377.082 Q156.557,378.36 155.422,379.022 Q154.287,379.684 153.02,379.35 Q151.742,379.014 151.081,377.874 Q150.421,376.734 150.754,375.466 Q151.088,374.199 152.223,373.537 Q153.358,372.875 154.636,373.211 Q155.903,373.544 156.567,374.674 Q157.23,375.804 156.894,377.082 z" fill="#000000"/>
      <path d="M183.231,373.36 Q185.508,373.582 186.633,375.332 Q187.975,377.405 187.54,381.864 Q187.107,386.312 185.378,388.108 Q183.95,389.587 181.672,389.366 Q179.384,389.143 178.155,387.248 Q176.926,385.352 177.365,380.841 Q177.796,376.414 179.525,374.618 Q180.954,373.138 183.231,373.36 z M182.988,375.851 Q182.443,375.798 181.982,376.104 Q181.52,376.41 181.197,377.285 Q180.774,378.42 180.505,381.179 Q180.237,383.937 180.414,384.996 Q180.592,386.055 180.981,386.438 Q181.37,386.821 181.915,386.874 Q182.46,386.928 182.922,386.622 Q183.383,386.316 183.706,385.441 Q184.128,384.316 184.397,381.558 Q184.666,378.799 184.488,377.741 Q184.311,376.682 183.922,376.293 Q183.534,375.905 182.988,375.851 z" fill="#000000"/>
      <path d="M209.08,386.182 L211.967,385.629 Q212.144,386.51 212.628,386.902 Q213.112,387.295 213.851,387.236 Q214.782,387.162 215.368,386.254 Q215.953,385.345 215.921,382.632 Q214.89,384.039 213.187,384.175 Q211.335,384.322 209.877,382.999 Q208.42,381.676 208.238,379.384 Q208.048,376.996 209.351,375.422 Q210.654,373.848 212.849,373.673 Q215.237,373.484 216.915,375.209 Q218.593,376.935 218.929,381.165 Q219.271,385.47 217.827,387.502 Q216.383,389.535 213.823,389.738 Q211.981,389.885 210.768,388.995 Q209.556,388.105 209.08,386.182 z M215.368,379.066 Q215.252,377.61 214.519,376.86 Q213.786,376.11 212.908,376.18 Q212.073,376.246 211.574,376.948 Q211.075,377.651 211.194,379.15 Q211.314,380.67 211.971,381.335 Q212.627,381.999 213.526,381.928 Q214.394,381.859 214.934,381.126 Q215.473,380.394 215.368,379.066 z" fill="#000000"/>
      <path d="M245.838,376.406 Q246.147,377.69 245.462,378.811 Q244.776,379.932 243.502,380.239 Q242.217,380.548 241.095,379.857 Q239.973,379.166 239.666,377.892 Q239.359,376.617 240.045,375.497 Q240.731,374.376 242.016,374.066 Q243.29,373.76 244.409,374.44 Q245.529,375.121 245.838,376.406 z" fill="#000000"/>
      <path d="M275.802,374.248 L273.014,375.405 L268.654,364.898 Q267.719,366.96 265.929,368.505 L264.88,365.975 Q265.823,365.165 266.689,363.637 Q267.555,362.109 267.48,360.582 L269.742,359.643 z" fill="#000000"/>
      <path d="M291.172,352.153 L289.655,349.795 L298.338,344.211 L299.523,346.054 Q299.128,347.803 299.289,350.496 Q299.45,353.19 300.3,355.792 Q301.149,358.394 302.286,360.141 L299.837,361.715 Q298.134,358.928 297.368,355.384 Q296.603,351.841 296.945,348.44 z" fill="#000000"/>
    </g>
    <path d="M70.939,324.479 C40.124,292.767 22.628,250.404 20.132,206.439" fill-opacity="0" stroke="#000000" stroke-width="6"/>
    <path d="M379.899,206.123 C378.468,250.69 359.241,292.691 328.797,324.894" fill-opacity="0" stroke="#000000" stroke-width="6"/>
    <text transform="matrix(1, 0, 0, 1, 181.5, 212.5)">
      <tspan x="-106.635" y="47" font-family="MyriadPro-Regular" font-size="190" kerning="-26" fill="#000000">J&amp;V</tspan>
    </text>
  </g>
  <g id="Calque_2">
    <path d="M816.804,1022.993 C815.262,1022.552 813.72,1021.01 813.279,1019.248 C812.398,1016.164 813.279,1011.318 815.482,1009.115 C816.584,1008.013 817.465,1007.573 819.007,1007.573 C823.633,1007.132 826.056,1010.436 825.836,1015.943 C825.615,1019.688 824.514,1021.891 822.091,1022.993 C820.769,1023.653 818.346,1023.653 816.804,1022.993 z M820.549,1019.909 C821.43,1019.248 822.091,1017.926 822.091,1015.723 C822.311,1013.3 821.87,1011.978 820.989,1011.097 C819.888,1009.996 818.346,1010.436 817.685,1012.199 C816.584,1014.181 816.363,1017.706 817.244,1019.248 C817.905,1020.569 819.447,1020.79 820.549,1019.909 z M850.728,1022.772 C849.626,1022.332 848.525,1021.891 848.084,1021.23 C847.644,1020.79 847.644,1020.79 848.745,1019.909 L849.626,1018.807 L850.728,1019.468 C852.71,1020.349 854.693,1019.909 855.354,1018.587 C855.574,1018.146 855.574,1017.926 855.354,1017.485 C854.913,1016.604 854.032,1016.164 851.829,1016.164 L849.847,1016.164 L849.626,1015.283 C849.626,1013.961 849.626,1013.741 850.948,1013.52 C852.71,1013.3 852.931,1013.08 853.591,1012.639 C854.252,1011.978 854.252,1011.097 853.591,1010.436 C852.931,1009.555 851.389,1009.555 850.287,1010.436 C849.626,1010.877 849.186,1011.318 848.965,1011.318 C848.525,1011.318 847.423,1009.996 847.423,1009.776 C847.423,1009.115 848.965,1007.793 850.067,1007.132 C851.389,1006.692 853.591,1006.692 854.913,1007.132 C857.557,1008.234 858.438,1010.877 856.896,1013.08 C856.455,1013.741 856.235,1014.181 856.235,1014.181 C858.658,1015.283 859.759,1016.825 859.099,1019.027 C858.878,1020.349 857.336,1021.891 855.794,1022.332 C854.473,1022.772 851.609,1022.993 850.728,1022.772 z M785.303,1014.401 C784.202,1013.741 783.321,1012.199 783.541,1011.097 C783.761,1009.996 784.642,1009.115 785.744,1008.674 C788.167,1008.013 790.59,1009.776 790.59,1012.199 C790.59,1014.401 787.506,1015.723 785.303,1014.401 z M882.889,1013.08 C881.568,1012.639 880.686,1011.538 880.686,1009.996 C880.907,1007.132 884.872,1005.59 887.075,1007.793 C888.837,1009.776 887.295,1012.859 884.211,1013.08 C883.77,1013.08 883.109,1013.08 882.889,1013.08 z M753.362,1002.947 C751.82,1002.726 751.379,1002.286 751.6,1001.184 C751.82,999.863 752.04,999.642 753.362,1000.083 C754.463,1000.303 757.547,1000.083 758.428,999.863 L759.089,999.422 L757.327,998.761 C754.023,996.999 752.921,993.915 754.904,991.272 C757.107,987.747 762.834,988.408 765.037,992.373 C765.478,993.254 765.698,993.695 765.478,995.237 C765.257,998.982 762.614,1002.066 758.649,1002.947 C757.107,1003.387 754.904,1003.387 753.362,1002.947 z M761.733,996.338 C762.173,995.898 762.173,995.457 762.173,994.576 C762.173,993.474 762.173,993.254 761.512,992.593 C760.411,991.712 759.089,991.712 757.988,992.593 C756.446,994.356 757.988,996.999 760.411,996.779 C760.852,996.779 761.512,996.558 761.733,996.338 z M911.967,1000.964 C911.526,1000.303 910.425,998.1 909.323,996.338 L907.341,993.034 L906.68,993.695 C905.579,994.356 905.138,994.356 904.697,993.474 L904.037,992.814 L905.138,990.611 C905.799,988.628 906.019,988.408 906.9,987.967 C907.341,987.527 907.781,987.527 908.002,987.527 C908.222,987.527 916.152,999.863 916.152,1000.303 C916.152,1000.744 913.729,1002.286 913.289,1002.286 C912.848,1002.286 912.628,1001.845 911.967,1000.964 z M726.928,983.782 C725.606,983.341 724.064,982.02 723.183,980.918 C721.2,977.834 721.641,974.75 724.945,971.446 C728.25,968.142 731.554,967.481 734.638,969.684 C735.959,970.785 736.841,971.887 737.281,973.429 C737.942,975.852 736.841,978.936 734.417,981.579 C733.536,982.24 732.435,983.121 731.774,983.562 C730.452,984.002 728.25,984.222 726.928,983.782 z M729.792,980.037 C730.673,979.596 732.875,977.394 733.316,976.072 C734.858,973.208 732.875,971.005 730.232,972.327 C729.131,972.988 726.708,975.191 726.267,976.513 C725.606,977.614 725.606,978.495 726.047,979.376 C726.708,980.478 728.029,980.918 729.792,980.037 z M934.656,983.121 C932.013,981.799 930.25,978.495 930.25,975.191 C930.03,972.547 931.792,967.921 932.894,967.701 C933.114,967.701 933.555,967.701 933.995,967.921 C935.097,968.362 935.097,968.582 934.216,970.565 C933.555,972.107 933.114,974.31 933.334,974.971 C933.555,975.191 933.555,975.191 934.436,974.31 C939.062,969.023 946.111,973.208 943.247,979.376 C941.705,982.901 937.52,984.663 934.656,983.121 z M939.723,979.376 C940.383,978.495 940.604,978.275 940.604,977.394 C940.604,976.072 939.723,975.411 938.401,975.411 C937.299,975.411 937.079,975.411 936.418,976.072 C934.436,977.834 935.097,980.037 937.74,980.037 C938.621,980.037 938.841,980.037 939.723,979.376 z M710.186,958.009 C682.651,930.032 666.129,894.567 662.164,855.797 C661.724,853.373 661.724,851.391 661.724,851.391 C661.724,851.391 662.825,851.171 664.147,851.171 L666.35,850.95 L666.57,854.034 C668.332,873.64 674.06,893.906 682.871,911.749 C691.021,928.05 700.714,941.708 713.711,955.145 L717.676,959.11 L716.134,960.652 C715.253,961.533 714.592,962.194 714.372,962.194 C714.372,962.194 712.389,960.432 710.186,958.009 z M951.838,956.687 L950.076,955.145 L953.38,951.4 C978.272,924.525 993.252,891.262 996.997,855.136 C997.217,853.373 997.437,851.831 997.437,851.611 C997.437,850.95 997.878,850.95 1000.741,851.171 L1002.063,851.391 L1002.063,852.272 C1000.301,872.318 995.675,889.941 987.965,907.563 C985.982,911.749 981.797,920.34 979.374,924.525 C974.968,932.015 968.58,941.047 963.073,947.655 C960.65,950.519 955.803,956.026 954.261,957.568 L953.38,958.229 L951.838,956.687 z M757.768,904.92 C752.701,904.479 748.956,903.598 742.127,900.955 C737.942,899.633 737.501,899.413 735.959,899.413 C734.197,899.413 734.197,899.413 731.554,900.735 C729.131,902.056 729.131,902.056 728.47,901.616 L727.589,901.396 L727.809,897.21 C728.029,890.822 728.029,875.402 727.589,871.217 L727.368,867.472 L729.792,867.472 C732.215,867.472 732.215,867.472 732.435,867.912 C732.435,868.133 732.655,869.454 732.875,870.996 C734.197,880.909 737.722,889.28 742.788,894.346 C747.635,898.972 753.362,901.175 760.852,900.735 C767.68,900.514 772.967,898.312 777.593,893.686 C782.66,888.619 785.303,882.451 785.303,875.622 C785.303,866.591 781.558,860.202 773.188,854.695 C770.104,852.492 766.799,850.73 760.411,847.646 C746.313,841.038 742.568,838.835 737.942,834.429 C731.333,828.041 728.47,820.111 729.351,809.977 C729.571,804.911 730.452,801.607 731.994,797.641 C736.62,785.746 747.635,778.477 761.733,777.596 C774.289,776.714 783.761,780.9 789.489,789.932 C790.37,791.474 792.352,795.439 792.352,795.879 C792.573,796.54 792.793,796.099 793.674,794.557 C796.758,787.729 803.146,781.781 810.636,778.917 L811.737,778.477 L809.755,780.459 C807.772,782.442 806.01,784.645 805.129,786.848 C804.688,787.288 804.027,788.169 803.367,788.83 C802.485,789.491 801.384,790.813 800.723,791.694 C797.199,796.32 795.436,801.166 795.216,807.995 L794.996,811.519 L792.793,811.519 L790.59,811.519 L790.59,809.537 C790.59,807.554 789.709,803.809 788.607,800.285 C785.083,790.152 779.135,783.984 770.544,782.222 C767.901,781.561 762.614,781.561 759.97,782.222 C749.397,784.424 743.009,792.795 742.568,804.911 C742.127,814.383 746.533,820.771 758.208,826.719 C759.53,827.38 763.495,829.362 766.799,830.904 C779.796,836.632 784.863,839.716 790.149,844.562 C791.471,845.664 791.691,845.884 791.912,845.443 C796.758,837.072 803.587,831.125 815.702,824.516 C817.024,823.855 818.126,823.195 818.126,822.974 C818.126,822.974 817.244,821.873 816.143,820.551 C809.534,812.841 807.111,808.215 805.79,802.047 C805.349,799.404 805.349,795.218 805.79,793.016 C806.891,787.068 811.076,782.222 816.804,779.578 C821.87,777.155 828.479,776.714 833.766,778.477 C839.273,780.459 843.018,784.865 844.56,790.813 C846.983,800.725 843.018,809.757 832.664,816.806 C831.783,817.247 831.122,817.908 831.122,818.128 C831.122,818.128 838.612,828.261 847.864,840.377 C858.878,854.915 864.606,862.405 864.826,862.185 C864.826,862.185 871.655,843.02 880.026,820.111 C888.396,796.981 895.445,777.816 895.445,777.596 C895.666,777.375 895.886,777.375 896.547,777.375 L897.648,777.375 L918.796,834.209 C930.25,865.489 940.383,892.804 941.265,895.007 C942.807,899.413 943.247,900.294 944.349,901.175 C945.45,902.277 946.551,902.717 949.856,902.938 C951.398,902.938 952.719,902.938 952.719,902.938 C952.719,902.938 952.94,903.598 952.94,904.259 L952.94,905.361 L933.775,905.361 L914.61,905.361 L914.831,904.259 L914.831,903.378 L916.813,902.938 C920.338,902.056 922.54,900.955 922.761,900.074 C922.761,899.854 920.338,892.364 915.491,878.706 C911.526,867.251 908.002,857.339 907.781,856.898 L907.341,855.797 L891.26,856.017 L874.959,856.017 L873.637,856.678 C872.756,857.118 872.095,857.559 871.875,858.22 C871.214,859.541 868.35,867.472 868.571,867.912 C868.571,867.912 870.333,870.335 872.316,872.979 C886.414,892.364 891.921,898.752 896.327,901.616 C897.208,902.277 898.529,902.938 899.19,903.158 C900.292,903.598 900.512,903.598 900.512,904.479 L900.512,905.361 L891.04,905.14 L881.568,905.14 L880.246,904.479 C877.823,903.378 876.06,900.955 865.927,887.077 C863.284,883.552 861.301,880.909 861.301,880.909 C861.081,880.909 860.42,882.01 859.539,883.332 C854.252,891.262 847.864,897.21 841.476,900.955 C832.885,905.581 821.65,906.462 811.958,903.158 C805.129,900.955 798.741,896.329 794.555,890.381 L793.454,889.06 L792.132,890.822 C784.642,900.735 771.646,906.242 757.768,904.92 z M837.07,893.245 C843.679,891.703 849.847,888.399 854.693,883.993 C856.015,882.671 857.557,880.909 858.217,880.028 L859.539,878.486 L857.777,876.283 C856.896,874.961 848.305,863.727 838.832,851.171 C829.36,838.614 821.21,828.041 821.21,827.82 C820.769,827.38 820.549,827.6 818.786,828.922 C811.517,834.429 806.01,843.24 804.248,852.272 C802.926,858.44 803.146,865.489 804.688,871.877 C806.891,880.248 811.737,887.077 818.566,890.822 C820.328,891.703 824.073,893.025 826.496,893.465 C828.92,893.906 834.647,893.686 837.07,893.245 z M905.799,850.73 C905.799,850.069 890.379,805.572 890.159,805.572 C889.938,805.572 876.281,845.003 876.06,846.985 C875.62,848.527 875.62,849.188 876.281,849.849 L876.721,850.51 L890.599,850.73 C898.309,850.95 904.697,850.95 905.138,850.95 C905.358,850.95 905.799,850.95 905.799,850.73 z M830.462,813.722 C834.647,810.198 837.29,806.233 838.612,801.607 C839.273,798.963 839.273,793.016 838.612,791.033 C837.511,786.407 834.427,783.323 830.241,782.222 C823.633,780.459 817.905,783.543 816.143,790.152 C815.702,791.914 815.702,795.439 816.143,796.981 C817.024,799.844 818.566,802.708 821.43,806.453 C823.192,808.876 828.479,815.044 828.699,815.044 C828.92,815.044 829.58,814.383 830.462,813.722 z M665.689,819.89 C664.587,819.229 664.367,818.789 665.028,818.128 C665.909,817.467 666.79,816.145 666.79,815.264 C666.79,813.061 664.587,813.061 663.045,815.264 C661.063,818.128 659.521,819.009 657.538,818.789 C653.133,818.569 651.811,813.282 655.115,809.537 C655.556,809.096 655.996,808.876 656.216,808.876 C656.437,808.876 657.098,809.096 657.538,809.537 C658.419,810.638 658.419,810.418 657.098,812.401 C656.657,813.061 656.216,813.722 656.216,813.943 C656.437,814.824 656.877,815.705 657.538,815.705 C658.419,815.705 659.3,815.044 660.182,813.502 C662.384,810.418 664.808,809.317 667.231,810.638 C669.874,811.74 670.535,815.264 668.993,818.348 C668.332,819.229 667.01,820.771 666.79,820.771 C666.57,820.771 666.129,820.331 665.689,819.89 z M997.878,817.027 C997.657,817.027 997.657,816.586 997.657,816.366 C997.657,816.366 999.199,813.722 1001.402,811.079 C1003.605,808.215 1005.147,805.792 1005.147,805.792 C1005.147,805.792 1003.165,806.233 1000.741,806.673 C998.318,807.114 996.336,807.554 996.115,807.554 C995.895,807.554 995.675,806.893 995.675,806.233 C995.234,804.911 995.234,804.691 995.675,804.47 C996.336,804.25 1010.214,801.386 1010.654,801.386 C1011.095,801.386 1011.315,801.386 1011.315,801.827 C1011.535,802.267 1010.875,803.149 1007.791,807.554 C1005.808,810.198 1004.046,812.621 1004.266,812.621 C1004.266,812.621 1006.028,812.401 1008.231,811.74 C1010.434,811.299 1012.417,811.079 1012.637,811.079 C1013.077,811.079 1013.298,811.519 1013.518,812.841 C1013.738,813.722 1013.738,813.943 1013.077,813.943 C1012.857,814.163 1009.553,814.824 1005.808,815.705 C1002.063,816.586 998.759,817.247 998.539,817.247 C998.318,817.247 997.878,817.247 997.878,817.027 z M668.112,791.253 C665.689,790.592 663.706,788.83 662.825,786.627 C661.944,784.865 661.944,782.001 662.605,780.239 C663.266,779.138 664.147,777.816 665.468,776.935 C666.79,776.054 667.01,776.274 667.671,777.596 L668.332,778.917 L667.231,779.798 C664.808,781.781 664.808,784.865 667.231,786.848 C669.434,788.83 673.399,788.39 674.72,785.746 C675.161,784.865 675.161,783.984 674.941,781.781 C674.941,781.34 674.941,781.12 676.042,780.68 C676.703,780.459 677.364,780.459 677.584,780.459 C677.804,780.459 678.025,781.12 678.245,781.781 C679.346,785.306 677.584,789.271 674.06,790.813 C672.518,791.474 669.654,791.694 668.112,791.253 z M991.93,784.204 C988.846,783.543 986.643,781.34 985.762,778.256 C984.881,774.732 986.864,770.767 990.388,769.005 C991.71,768.344 992.15,768.344 994.133,768.344 C995.895,768.344 996.336,768.344 997.437,769.005 C1002.063,771.207 1003.385,776.935 1000.301,780.9 C998.318,783.323 994.794,784.645 991.93,784.204 z M995.014,780.68 C996.556,780.239 997.437,779.358 998.098,778.036 C999.64,774.732 997.437,771.648 993.913,771.648 C991.269,771.428 989.066,773.851 989.066,776.274 C989.066,778.917 990.829,780.9 993.692,780.9 C993.692,780.9 994.353,780.9 995.014,780.68 z M683.532,762.396 C680.888,761.955 678.685,760.193 677.364,757.77 C676.703,756.448 676.703,756.228 676.703,754.245 C676.703,752.263 676.703,751.822 677.364,750.941 C680.448,744.993 689.039,745.214 692.123,751.382 C692.784,752.483 692.784,752.924 692.784,754.906 C692.784,756.669 692.784,757.109 692.123,758.211 C690.581,761.295 686.836,763.277 683.532,762.396 z M686.836,758.871 C691.021,757.109 690.14,750.941 685.735,750.06 C682.43,749.399 679.567,751.602 680.007,754.906 C680.227,756.669 681.109,757.99 682.651,758.871 C683.752,759.312 685.735,759.312 686.836,758.871 z M974.087,754.906 C972.104,754.245 970.342,751.822 970.122,749.179 C969.902,748.298 970.122,747.857 970.342,747.417 C970.562,746.976 972.325,746.756 972.765,746.976 C972.986,747.196 973.206,747.857 973.206,748.518 C973.426,750.06 973.426,750.501 974.087,751.161 C974.528,751.822 975.629,751.822 976.29,751.161 C976.73,750.721 976.73,749.84 976.51,746.976 C976.29,744.553 976.51,743.672 977.832,742.35 C979.154,741.028 980.916,740.588 982.678,741.249 C984.44,742.13 985.982,744.333 986.203,746.535 C986.423,748.298 986.203,748.738 984.661,748.738 C984,748.738 983.339,748.518 983.339,748.298 C983.119,748.298 983.119,747.417 982.898,746.756 C982.678,744.993 982.238,744.333 981.136,744.333 C980.475,744.333 980.255,744.333 980.035,744.993 C979.594,745.434 979.594,745.875 979.814,747.417 C980.475,751.161 980.035,752.703 978.493,754.025 C977.171,755.127 975.629,755.567 974.087,754.906 z M703.578,731.336 L698.952,727.15 L697.85,728.472 C697.189,729.133 696.529,729.794 696.529,729.794 C696.088,729.794 694.546,728.032 694.546,727.811 C694.546,727.371 700.934,720.322 701.375,720.322 C701.595,720.322 703.137,721.423 703.357,721.864 C703.357,722.084 702.917,722.745 702.256,723.406 C701.815,724.066 701.375,724.727 701.375,724.727 C701.375,724.948 703.357,726.71 705.78,729.133 C708.424,731.336 710.406,733.318 710.406,733.539 C710.627,733.759 708.864,735.742 708.644,735.742 C708.424,735.742 706.221,733.759 703.578,731.336 z M955.363,732.437 C954.922,731.776 954.702,731.336 954.702,731.116 C955.143,730.675 965.937,720.762 966.157,720.762 C966.597,720.762 968.139,722.304 968.139,722.745 C968.139,723.185 957.125,733.539 956.464,733.539 C956.464,733.539 955.803,732.878 955.363,732.437 z M937.52,715.916 C935.317,714.154 934.436,713.273 934.436,713.052 C934.436,712.391 943.467,700.937 944.128,700.937 C944.569,700.937 946.331,702.038 946.331,702.479 C946.331,702.699 944.569,704.902 942.586,707.545 C940.604,709.968 938.841,712.391 938.621,712.391 C938.621,712.612 939.062,713.273 940.604,714.374 C941.705,715.255 942.807,716.136 942.807,716.357 C942.807,717.017 941.485,718.559 941.044,718.339 C940.824,718.339 939.282,717.238 937.52,715.916 z M728.25,716.577 C728.029,716.357 726.487,714.374 724.505,711.951 C722.522,709.307 720.76,707.105 720.54,707.105 C720.319,706.884 720.099,706.884 718.998,707.765 C718.337,708.206 717.676,708.867 717.676,708.867 C717.235,708.867 715.914,707.105 715.914,706.664 C715.914,706.444 723.183,700.276 723.624,700.276 C724.064,700.276 725.606,702.038 725.606,702.258 C725.606,702.479 724.945,702.919 724.284,703.58 C723.624,704.021 723.183,704.681 723.183,704.681 C723.183,704.902 724.064,706.223 725.386,707.765 C730.012,713.713 730.893,714.594 730.673,715.035 C730.452,715.255 728.69,716.797 728.47,716.577 C728.47,716.577 728.47,716.577 728.25,716.577 z M915.051,700.937 C913.068,699.835 911.526,698.734 911.306,698.513 C911.086,698.293 912.187,696.531 914.831,691.685 C916.813,687.94 918.575,684.856 918.796,684.856 C919.236,684.636 921.219,685.737 921.219,686.178 C921.219,686.398 919.897,689.041 918.355,691.905 C916.593,694.989 915.271,697.412 915.491,697.412 C915.491,697.412 916.593,698.073 917.694,698.734 C919.016,699.395 920.117,700.055 920.117,700.276 C920.338,700.716 919.236,702.919 918.796,702.699 C918.575,702.699 917.033,701.818 915.051,700.937 z M766.138,693.006 C765.918,692.786 766.138,688.821 766.359,684.415 C766.579,677.146 766.799,676.044 767.02,675.824 C767.24,675.604 767.46,675.604 767.46,675.604 C767.68,675.604 770.544,678.247 773.848,681.552 C778.034,685.737 779.796,687.94 779.796,688.16 C779.576,688.38 777.814,689.262 777.373,689.262 C777.153,689.262 776.492,688.601 775.831,688.16 L774.95,687.059 L772.306,688.16 C770.764,688.821 769.663,689.262 769.443,689.262 C769.443,689.482 769.222,690.143 769.222,691.024 C769.002,691.685 769.002,692.566 768.782,692.566 C768.562,692.786 766.799,693.447 766.579,693.447 C766.359,693.447 766.138,693.227 766.138,693.006 z M771.425,685.296 L772.527,684.856 L771.205,683.314 L769.663,681.552 L769.443,682.653 C769.443,683.314 769.443,684.195 769.443,684.856 C769.443,685.957 769.443,686.178 769.663,685.957 C769.883,685.957 770.764,685.517 771.425,685.296 z M893.243,690.583 C891.921,689.922 891.921,689.922 891.701,688.38 L891.48,686.838 L888.617,685.957 L885.753,684.856 L884.651,685.957 C883.77,687.059 883.55,687.059 883.109,687.059 C881.568,686.398 881.127,686.398 881.127,685.957 C881.127,685.737 882.669,683.534 886.854,679.349 C889.938,675.824 892.582,673.181 892.802,673.181 C893.463,673.181 893.683,673.401 894.344,681.992 C895.005,691.685 895.225,691.244 893.243,690.583 z M891.26,682.212 C891.04,680.23 890.819,679.349 890.819,679.569 C890.379,679.569 887.956,682.433 888.176,682.433 C888.396,682.653 890.819,683.534 891.26,683.534 C891.26,683.534 891.26,683.094 891.26,682.212 z M797.419,683.094 C797.199,682.873 794.555,668.775 794.555,667.894 C794.555,667.453 794.555,667.233 794.996,667.233 C795.436,667.013 796.317,667.674 800.503,670.978 C803.367,673.181 805.569,674.723 805.569,674.723 C805.569,674.723 805.349,672.74 804.909,670.537 C804.027,665.471 804.027,665.691 806.01,665.471 C807.111,665.25 807.111,665.471 807.332,665.691 C807.332,665.911 807.992,669.436 808.653,673.401 C810.195,681.111 810.195,681.552 809.094,681.552 C808.874,681.552 806.451,679.569 803.807,677.366 C800.943,675.163 798.741,673.401 798.741,673.621 C798.741,673.621 798.961,675.384 799.401,677.586 C800.283,682.212 800.283,682.653 799.622,682.873 C798.52,683.314 797.639,683.534 797.419,683.094 z M830.462,679.569 L830.021,679.349 L830.021,672.74 C830.021,669.216 830.021,665.471 830.021,664.81 L830.241,663.488 L833.766,663.488 C837.07,663.488 837.29,663.488 838.612,664.149 C840.154,664.81 841.696,666.352 842.577,668.114 C843.238,668.995 843.238,669.436 843.238,671.418 C843.238,673.401 843.238,673.842 842.577,674.943 C841.916,676.705 840.374,678.247 838.612,678.908 C837.29,679.569 837.07,679.569 834.206,679.569 C832.444,679.569 830.682,679.569 830.462,679.569 z M837.07,676.044 C838.832,675.384 839.934,673.621 839.934,671.639 C839.934,668.334 838.172,666.572 834.867,666.572 L833.325,666.792 L833.325,671.639 L833.325,676.485 L834.867,676.485 C835.748,676.485 836.63,676.265 837.07,676.044 z" fill="#C40000" display="none"/>
  </g>
</svg>
